<?xml version="1.0" encoding="UTF-8" standalone="no"?>
<svg
   viewBox="0 0 14.918071 16.105858"
   preserveAspectRatio="xMidYMid meet"
   role="img"
   aria-label="Studio Phoenix logo"
   version="1.1"
   id="svg50"
   style="--phoenix:#F29801; --studio:#F3F1EC; color:#f29801"
   width="14.918071"
   height="16.105858"
   xmlns="http://www.w3.org/2000/svg"
   xmlns:svg="http://www.w3.org/2000/svg">
  <defs
     id="defs5">
    <!-- needed by wing corners -->
    <clipPath
       id="clipPath82525"
       clipPathUnits="userSpaceOnUse">
      <rect
         x="161.65089"
         y="19.595161"
         width="4.3029871"
         height="5.0331659"
         id="rect2" />
    </clipPath>
  </defs>
  <g
     id="phoenix"
     fill="#f29801"
     transform="translate(-142.88002,-21.676186)"
     style="display:inline">
    <!-- head -->
    <path
       d="m 151.59876,26.994146 -1.26285,-1.26285 -1.26289,1.262892 1.26285,1.26285 z"
       id="path7" />
    <!-- body -->
    <!-- wing right -->
    <g
       transform="translate(3.1750001)"
       id="g25"
       style="display:inline">
      <!-- wing outer right -->
      <path
         d="m 153.21484,26.015625 -5.72982,5.740943 1.26285,1.26285 4.98225,-4.988411 z"
         id="path15"/>
      <!-- wing inner right -->
      <path
         d="m 153.08148,21.676186 -7.18346,7.187892 1.26285,1.26285 7.3235,-7.316381 z"
         id="path17"/>
      <!-- wing tip right-->
      <g
         transform="matrix(0.86071888,0,0,0.75498491,21.428479,6.033842)"
         id="g21">
        <path
           d="m 152.95703,20.71875 -0.004,5.929687 1.78907,0.002 0.006,-5.929688 z"
           id="path19" />
      </g>
      <!-- wing corner right -->
      <path
         d="m 164.0596,23.212235 q 0.89297,-0.892968 0.89297,-2.158007 h -1.26504 l -3.19981,3.199803 -3.1998,-3.199803 h -1.26504 q 0,1.265039 0.89297,2.158007 l 2.30683,2.306836 -2.30683,2.306835 q -0.89297,0.892969 -0.89297,2.158009 h 1.26504 l 3.1998,-3.199804 3.19981,3.199804 h 1.26504 q 0,-1.26504 -0.89297,-2.158008 l -2.30684,-2.306835 z"
         clip-path="url(#clipPath82525)"
         transform="translate(-10.32948,4.818772)"
         id="path23" />
    </g>
    <!-- wing left -->
    <g
       transform="matrix(-1,0,0,1,297.50311,0)"
       id="g37"
       style="display:inline">
      <!-- wing outer left -->
      <path
         d="m 153.21484,26.015625 -5.73249,5.740901 1.26289,1.262892 4.98488,-4.988411 z"
         id="path27"/>
      <!-- wing inner left -->
      <path
         d="m 153.08148,21.676186 -7.17713,7.18785 1.26289,1.262892 7.31713,-7.316381 z"
         id="path29"/>
      <!-- wing tip left -->
      <g
         transform="matrix(0.86071888,0,0,0.75498491,21.428479,6.033842)"
         id="g33">
        <path
           d="m 152.95703,20.71875 -0.004,5.929687 1.78907,0.002 0.006,-5.929688 z"
           id="path31" />
      </g>
      <!-- wing corner left -->
      <path
         d="m 164.0596,23.212235 q 0.89297,-0.892968 0.89297,-2.158007 h -1.26504 l -3.19981,3.199803 -3.1998,-3.199803 h -1.26504 q 0,1.265039 0.89297,2.158007 l 2.30683,2.306836 -2.30683,2.306835 q -0.89297,0.892969 -0.89297,2.158009 h 1.26504 l 3.1998,-3.199804 3.19981,3.199804 h 1.26504 q 0,-1.26504 -0.89297,-2.158008 l -2.30684,-2.306835 z"
         clip-path="url(#clipPath82525)"
         transform="translate(-10.32948,4.818772)"
         id="path35" />
    </g>
    <!-- tail -->
    <g
       id="g47">
      <!-- tail top -->
      <path
         d="m 151.5985,33.34415 -1.26285,-1.26285 -1.26289,1.262892 1.26285,1.26285 z"
         id="path39" />
      <!-- tail left -->
      <path
         d="m 150.01099,34.931651 -1.26285,-1.26285 -1.26289,1.262892 1.26285,1.26285 z"
         id="path41"
         style="display:inline" />
      <!-- tail right -->
      <path
         d="m 153.18601,34.931651 -1.26285,-1.26285 -1.26289,1.262892 1.26285,1.26285 z"
         id="path43" />
      <!-- tail bottom -->
      <path
         d="m 151.5985,36.519152 -1.26285,-1.26285 -1.26289,1.262892 1.26285,1.26285 z"
         id="path45" />
    </g>
  </g>
</svg>
