<?xml version="1.0" encoding="UTF-8" standalone="no"?>
<svg
   viewBox="0 0 141.04646 18.216967"
   preserveAspectRatio="xMidYMid meet"
   role="img"
   aria-label="Studio Phoenix logo"
   version="1.1"
   id="svg77"
   width="141.04645"
   height="18.216969"
   sodipodi:docname="logo_full.svg"
   inkscape:version="1.1.2 (0a00cf5339, 2022-02-04)"
   xmlns:inkscape="http://www.inkscape.org/namespaces/inkscape"
   xmlns:sodipodi="http://sodipodi.sourceforge.net/DTD/sodipodi-0.dtd"
   xmlns="http://www.w3.org/2000/svg"
   xmlns:svg="http://www.w3.org/2000/svg">
  <sodipodi:namedview
     id="namedview321"
     pagecolor="#505050"
     bordercolor="#eeeeee"
     borderopacity="0"
     inkscape:pageshadow="0"
     inkscape:pageopacity="0"
     inkscape:pagecheckerboard="0"
     showgrid="false"
     inkscape:zoom="14.760582"
     inkscape:cx="100.53804"
     inkscape:cy="20.188906"
     inkscape:window-width="1920"
     inkscape:window-height="996"
     inkscape:window-x="0"
     inkscape:window-y="0"
     inkscape:window-maximized="1"
     inkscape:current-layer="text6831-6"
     width="136.74615px"
     units="mm"
     fit-margin-top="0"
     fit-margin-left="0"
     fit-margin-right="0"
     fit-margin-bottom="0"
     inkscape:snap-global="true"
     inkscape:snap-text-baseline="true"
     inkscape:snap-center="true"
     inkscape:snap-object-midpoints="true"
     inkscape:snap-midpoints="true"
     inkscape:snap-smooth-nodes="true"
     inkscape:snap-intersection-paths="true"
     inkscape:object-paths="true"
     inkscape:snap-bbox="true"
     inkscape:bbox-paths="true"
     inkscape:bbox-nodes="true"
     inkscape:snap-bbox-edge-midpoints="true"
     inkscape:snap-bbox-midpoints="true" />
  <defs
     id="defs5">
    <linearGradient
       id="linearGradient7516"
       inkscape:swatch="solid">
      <stop
         style="stop-color:#20201f;stop-opacity:1;"
         offset="0"
         id="stop7514" />
    </linearGradient>
    <marker
       style="overflow:visible"
       id="Tail"
       refX="0"
       refY="0"
       orient="auto"
       inkscape:stockid="Tail"
       inkscape:isstock="true">
      <g
         transform="scale(-1.2)"
         id="g4966">
        <path
           style="fill:none;fill-rule:evenodd;stroke:context-stroke;stroke-width:0.8;stroke-linecap:round"
           d="M -3.8048674,-3.9585227 0.54352094,0"
           id="path4954" />
        <path
           style="fill:none;fill-rule:evenodd;stroke:context-stroke;stroke-width:0.8;stroke-linecap:round"
           d="M -1.2866832,-3.9585227 3.0617053,0"
           id="path4956" />
        <path
           style="fill:none;fill-rule:evenodd;stroke:context-stroke;stroke-width:0.8;stroke-linecap:round"
           d="M 1.3053582,-3.9585227 5.6537466,0"
           id="path4958" />
        <path
           style="fill:none;fill-rule:evenodd;stroke:context-stroke;stroke-width:0.8;stroke-linecap:round"
           d="M -3.8048674,4.1775838 0.54352094,0.21974226"
           id="path4960" />
        <path
           style="fill:none;fill-rule:evenodd;stroke:context-stroke;stroke-width:0.8;stroke-linecap:round"
           d="M -1.2866832,4.1775838 3.0617053,0.21974226"
           id="path4962" />
        <path
           style="fill:none;fill-rule:evenodd;stroke:context-stroke;stroke-width:0.8;stroke-linecap:round"
           d="M 1.3053582,4.1775838 5.6537466,0.21974226"
           id="path4964" />
      </g>
    </marker>
    <!-- needed by wing corners -->
    <clipPath
       id="clipPath82525"
       clipPathUnits="userSpaceOnUse">
      <rect
         x="161.65089"
         y="19.595161"
         width="4.3029871"
         height="5.0331659"
         id="rect2" />
    </clipPath>
  </defs>
  <!-- left word -->
  <!-- right word + phoenix mark -->
  <g
     id="phoenix"
     fill="currentColor"
     transform="translate(-24.403151,-20.558174)"
     style="fill:#f29801;stroke:#20201f;stroke-width:0.2;stroke-miterlimit:4;stroke-dasharray:none;stroke-opacity:1"
     inkscape:label="phoenix">
    <!--p-->
    <!--h-->
    <!--o-->
    <!--e-->
    <!--n-->
    <!--i-->
    <!-- Stylized x (kept clips & stroke-only pieces) -->
    <!-- tail -->
    <g
       id="g3571"
       inkscape:label="word"
       transform="translate(2)"
       style="display:inline;stroke:#20201f;stroke-width:0.3;stroke-miterlimit:4;stroke-dasharray:none;stroke-opacity:1">
      <path
         d="m 97.243853,31.542548 v -5.357812 h 6.250777 v 5.357812 z m -1.78594,-7.143749 V 36.90036 h 1.78594 v -3.571875 h 6.250777 q 0.44649,0 0.89297,-0.223242 0.89297,-0.446484 0.89297,-1.562695 v -5.357812 q 0,-1.116211 -0.89297,-1.562695 -0.44648,-0.223242 -0.89297,-0.223242 z"
         id="path20"
         inkscape:label="p"
         style="fill:#f29801;stroke:#20201f;stroke-width:0.3;stroke-miterlimit:4;stroke-dasharray:none;stroke-opacity:1" />
      <path
         d="m 108.45247,24.398799 v -3.571875 h -1.83245 v 12.501561 h 1.83245 v -7.143749 h 6.25078 v 7.143749 h 1.78594 v -7.143749 q 0,-1.116211 -0.89297,-1.562695 -0.44649,-0.223242 -0.89297,-0.223242 z"
         id="path22"
         inkscape:label="h"
         style="fill:#f29801;stroke:#20201f;stroke-width:0.3;stroke-miterlimit:4;stroke-dasharray:none;stroke-opacity:1" />
      <path
         d="m 125.81885,31.542548 h -6.25078 v -5.357812 h 6.25078 z m 0,1.785937 q 1.11621,0 1.56269,-0.892969 0.22325,-0.446484 0.22325,-0.892968 v -5.357812 q 0,-1.116211 -0.89297,-1.562695 -0.44649,-0.223242 -0.89297,-0.223242 h -6.25078 q -0.44649,0 -0.89297,0.223242 -0.89297,0.446484 -0.89297,1.562695 v 5.357812 q 0,1.116211 0.89297,1.562695 0.44648,0.223242 0.89297,0.223242 z"
         id="path24"
         inkscape:label="o"
         style="fill:#f29801;stroke:#20201f;stroke-width:0.3;stroke-miterlimit:4;stroke-dasharray:none;stroke-opacity:1" />
      <path
         d="m 128.94424,24.398799 v 7.143749 q 0,1.116211 0.89297,1.562695 0.44648,0.223242 0.89297,0.223242 h 8.03672 v -1.785937 h -8.03672 l 6.94841,-2.874243 q 0.32556,-0.139525 0.56741,-0.38137 0.25115,-0.251148 0.38137,-0.56741 0.13953,-0.334862 0.13953,-0.69763 v -0.837159 q 0,-0.446484 -0.22325,-0.892969 -0.44648,-0.892968 -1.56269,-0.892968 z m 8.03672,1.785937 v 0.837159 l -6.25078,2.585887 v -3.423046 z"
         id="path26"
         inkscape:label="e"
         style="fill:#f29801;stroke:#20201f;stroke-width:0.3;stroke-miterlimit:4;stroke-dasharray:none;stroke-opacity:1" />
      <path
         d="m 140.10635,33.328485 h 1.78594 v -7.143749 h 6.25078 v 7.143749 h 1.78594 v -7.143749 q 0,-1.116211 -0.89297,-1.562695 -0.44649,-0.223242 -0.89297,-0.223242 h -8.03672 z"
         id="path28"
         inkscape:label="n"
         style="fill:#f29801;stroke:#20201f;stroke-width:0.3;stroke-miterlimit:4;stroke-dasharray:none;stroke-opacity:1" />
      <path
         d="m 153.0544,24.398799 h -1.78594 v 8.929686 h 1.78594 z"
         id="path30"
         inkscape:label="i"
         style="fill:#f29801;stroke:#20201f;stroke-width:0.3;stroke-miterlimit:4;stroke-dasharray:none;stroke-opacity:1" />
      <path
         d="m 162.40663,26.572931 q 0.89297,-0.892968 0.89297,-2.158007 h -1.26504 l -3.19981,3.199803 -3.1998,-3.199803 h -1.26504 q 0,1.265039 0.89297,2.158007 l 2.30683,2.306836 -2.30683,2.306835 q -0.89297,0.892969 -0.89297,2.158008 h 1.26504 l 3.1998,-3.199804 3.19981,3.199804 h 1.26504 q 0,-1.265039 -0.89297,-2.158008 l -2.30684,-2.306835 z"
         id="path34"
         inkscape:label="x"
         style="fill:#f29801;stroke:#20201f;stroke-width:0.3;stroke-miterlimit:4;stroke-dasharray:none;stroke-opacity:1" />
    </g>
    <g
       id="g9685"
       inkscape:label="symbol (base with outline)"
	   className="phoenix-mark"
       transform="translate(0,-0.2992616)"
       style="display:inline;fill:none;stroke:#20201f;stroke-width:0.4;stroke-miterlimit:4;stroke-dasharray:none;stroke-opacity:1;paint-order:normal">
      <g
         transform="translate(-63.680107)"
         id="g9673"
         style="fill:none;stroke:#20201f;stroke-width:0.4;stroke-miterlimit:4;stroke-dasharray:none;stroke-opacity:1;paint-order:normal">
        <!-- head -->
        <path
           d="m 151.60389,26.994146 -1.26285,-1.26285 -1.26289,1.262892 1.26285,1.26285 z"
           id="path9645"
           sodipodi:nodetypes="ccccc"
           style="fill:none;stroke:#20201f;stroke-width:0.4;stroke-miterlimit:4;stroke-dasharray:none;stroke-opacity:1;paint-order:normal" />
        <!-- body -->
        <g
           transform="translate(3.1750001)"
           id="g9647"
           style="fill:none;stroke:#20201f;stroke-width:0.4;stroke-miterlimit:4;stroke-dasharray:none;stroke-opacity:1;paint-order:normal" />
        <!-- wing right -->
        <g
           transform="translate(3.1750001)"
           id="g9659"
           style="fill:none;stroke:#20201f;stroke-width:0.4;stroke-miterlimit:4;stroke-dasharray:none;stroke-opacity:1;paint-order:normal">
          <!-- wing outer right -->
          <path
             d="m 153.21484,26.015625 -5.72982,5.740943 1.263,1.26285 4.9821,-4.988411 z"
             id="path9649"
             sodipodi:nodetypes="ccccc"
             style="fill:none;stroke:#20201f;stroke-width:0.4;stroke-miterlimit:4;stroke-dasharray:none;stroke-opacity:1;paint-order:normal" />
          <!-- wing inner right -->
          <path
             d="m 153.08148,21.676186 -7.18346,7.187892 1.26285,1.26285 7.3235,-7.316381 z"
             id="path9651"
             style="fill:none;stroke:#20201f;stroke-width:0.4;stroke-miterlimit:4;stroke-dasharray:none;stroke-opacity:1;paint-order:normal" />
          <!-- wing tip right-->
          <g
             transform="matrix(0.86071888,0,0,0.75498491,21.428479,6.033842)"
             id="g9655"
             style="fill:none;stroke:#20201f;stroke-width:0.496204;stroke-miterlimit:4;stroke-dasharray:none;stroke-opacity:1;paint-order:normal">
            <path
               d="m 152.95703,20.71875 -0.004,5.929687 1.78907,0.002 0.006,-5.929688 z"
               id="path9653"
               style="fill:none;stroke:#20201f;stroke-width:0.496204;stroke-miterlimit:4;stroke-dasharray:none;stroke-opacity:1;paint-order:normal" />
          </g>
          <!-- wing corner right -->
          <path
             d="m 164.0596,23.212235 q 0.89297,-0.892968 0.89297,-2.158007 h -1.26504 l -3.19981,3.199803 -3.1998,-3.199803 h -1.26504 q 0,1.265039 0.89297,2.158007 l 2.30683,2.306836 -2.30683,2.306835 q -0.89297,0.892969 -0.89297,2.158009 h 1.26504 l 3.1998,-3.199804 3.19981,3.199804 h 1.26504 q 0,-1.26504 -0.89297,-2.158008 l -2.30684,-2.306835 z"
             clip-path="url(#clipPath82525)"
             transform="translate(-10.32948,4.818772)"
             id="path9657"
             style="fill:none;stroke:#20201f;stroke-width:0.4;stroke-miterlimit:4;stroke-dasharray:none;stroke-opacity:1;paint-order:normal" />
        </g>
        <!-- wing left -->
        <g
           transform="matrix(-1,0,0,1,297.50311,0)"
           id="g9671"
           style="fill:none;stroke:#20201f;stroke-width:0.4;stroke-miterlimit:4;stroke-dasharray:none;stroke-opacity:1;paint-order:normal">
          <!-- wing outer left -->
          <path
             d="m 153.21484,26.015625 -5.73249,5.740901 1.26289,1.262892 4.98488,-4.988411 z"
             id="path9661"
             style="fill:none;stroke:#20201f;stroke-width:0.4;stroke-miterlimit:4;stroke-dasharray:none;stroke-opacity:1;paint-order:normal" />
          <!-- wing inner left -->
          <path
             d="m 153.08148,21.676186 -7.17713,7.18785 1.26289,1.262892 7.31713,-7.316381 z"
             id="path9663"
             style="fill:none;stroke:#20201f;stroke-width:0.4;stroke-miterlimit:4;stroke-dasharray:none;stroke-opacity:1;paint-order:normal" />
          <!-- wing tip left -->
          <g
             transform="matrix(0.86071888,0,0,0.75498491,21.428479,6.033842)"
             id="g9667"
             style="fill:none;stroke:#20201f;stroke-width:0.496204;stroke-miterlimit:4;stroke-dasharray:none;stroke-opacity:1;paint-order:normal">
            <path
               d="m 152.95703,20.71875 -0.004,5.929687 1.78907,0.002 0.006,-5.929688 z"
               id="path9665"
               style="fill:none;stroke:#20201f;stroke-width:0.496204;stroke-miterlimit:4;stroke-dasharray:none;stroke-opacity:1;paint-order:normal" />
          </g>
          <!-- wing corner left -->
          <path
             d="m 164.0596,23.212235 q 0.89297,-0.892968 0.89297,-2.158007 h -1.26504 l -3.19981,3.199803 -3.1998,-3.199803 h -1.26504 q 0,1.265039 0.89297,2.158007 l 2.30683,2.306836 -2.30683,2.306835 q -0.89297,0.892969 -0.89297,2.158009 h 1.26504 l 3.1998,-3.199804 3.19981,3.199804 h 1.26504 q 0,-1.26504 -0.89297,-2.158008 l -2.30684,-2.306835 z"
             clip-path="url(#clipPath82525)"
             transform="translate(-10.32948,4.818772)"
             id="path9669"
             style="fill:none;stroke:#20201f;stroke-width:0.4;stroke-miterlimit:4;stroke-dasharray:none;stroke-opacity:1;paint-order:normal" />
        </g>
      </g>
      <g
         id="g9683"
         transform="translate(-63.500337)"
         style="fill:none;stroke:#20201f;stroke-width:0.4;stroke-miterlimit:4;stroke-dasharray:none;stroke-opacity:1;paint-order:normal">
        <!-- tail top -->
        <path
           d="m 151.42362,33.34415 -1.26285,-1.26285 -1.26289,1.262892 1.26337,1.26285 z"
           id="path9675"
           sodipodi:nodetypes="ccccc"
           style="fill:none;stroke:#20201f;stroke-width:0.4;stroke-miterlimit:4;stroke-dasharray:none;stroke-opacity:1;paint-order:normal" />
        <!-- tail left -->
        <path
           d="m 149.83662,34.931651 -1.26285,-1.26285 -1.26289,1.262892 1.26285,1.26285 z"
           id="path9677"
           style="display:inline;fill:none;stroke:#20201f;stroke-width:0.4;stroke-miterlimit:4;stroke-dasharray:none;stroke-opacity:1;paint-order:normal"
           sodipodi:nodetypes="ccccc" />
        <!-- tail right -->
        <path
           d="m 153.01162,34.931651 -1.26285,-1.26285 -1.26289,1.262892 1.26285,1.26285 z"
           id="path9679"
           sodipodi:nodetypes="ccccc"
           style="fill:none;stroke:#20201f;stroke-width:0.4;stroke-miterlimit:4;stroke-dasharray:none;stroke-opacity:1;paint-order:normal" />
        <!-- tail bottom -->
        <path
           d="m 151.42412,36.518774 -1.26285,-1.26285 -1.26289,1.262892 1.26285,1.26285 z"
           id="path9681"
           sodipodi:nodetypes="ccccc"
           style="fill:none;stroke:#20201f;stroke-width:0.4;stroke-miterlimit:4;stroke-dasharray:none;stroke-opacity:1;paint-order:normal" />
      </g>
    </g>
    <g
       id="g3432"
       inkscape:label="symbol (base)"
	   className="phoenix-mark"
       transform="translate(0,-0.2992616)"
       style="display:inline;stroke:none;stroke-width:0.3;stroke-miterlimit:4;stroke-dasharray:none;stroke-opacity:1;paint-order:normal;overflow:visible;"
	   >
      <g
         transform="translate(-63.680107)"
         id="g64"
         style="fill:#f29801;stroke:none;stroke-width:0.3;stroke-miterlimit:4;stroke-dasharray:none;stroke-opacity:1;paint-order:normal">
        <!-- head -->
        <path
           d="m 151.60389,26.994146 -1.26285,-1.26285 -1.26289,1.262892 1.26285,1.26285 z"
           id="path296"
           sodipodi:nodetypes="ccccc"
           style="fill:#f29801;stroke:none;stroke-width:0.3;stroke-miterlimit:4;stroke-dasharray:none;stroke-opacity:1;paint-order:normal" />
        <!-- body -->
        <g
           transform="translate(3.1750001)"
           id="g38"
           style="fill:#f29801;stroke:none;stroke-width:0.3;stroke-miterlimit:4;stroke-dasharray:none;stroke-opacity:1;paint-order:normal" />
        <!-- wing right -->
        <g
           transform="translate(3.1750001)"
           id="g50"
           style="fill:#f29801;stroke:none;stroke-width:0.3;stroke-miterlimit:4;stroke-dasharray:none;stroke-opacity:1;paint-order:normal">
          <!-- wing outer right -->
          <path
             d="m 153.21484,26.015625 -5.72982,5.740943 1.263,1.26285 4.9821,-4.988411 z"
             id="path299"
             sodipodi:nodetypes="ccccc"
             style="fill:#f29801;stroke:none;stroke-width:0.3;stroke-miterlimit:4;stroke-dasharray:none;stroke-opacity:1;paint-order:normal" />
          <!-- wing inner right -->
          <path
             d="m 153.08148,21.676186 -7.18346,7.187892 1.26285,1.26285 7.3235,-7.316381 z"
             id="path301"
             style="fill:#f29801;stroke:none;stroke-width:0.3;stroke-miterlimit:4;stroke-dasharray:none;stroke-opacity:1;paint-order:normal" />
          <!-- wing tip right-->
          <g
             transform="matrix(0.86071888,0,0,0.75498491,21.428479,6.033842)"
             id="g46"
             style="fill:#f29801;stroke:none;stroke-width:0.372153;stroke-miterlimit:4;stroke-dasharray:none;stroke-opacity:1;paint-order:normal">
            <path
               d="m 152.95703,20.71875 -0.004,5.929687 1.78907,0.002 0.006,-5.929688 z"
               id="path44"
               style="fill:#f29801;stroke:none;stroke-width:0.372153;stroke-miterlimit:4;stroke-dasharray:none;stroke-opacity:1;paint-order:normal" />
          </g>
          <!-- wing corner right -->
          <path
             d="m 164.0596,23.212235 q 0.89297,-0.892968 0.89297,-2.158007 h -1.26504 l -3.19981,3.199803 -3.1998,-3.199803 h -1.26504 q 0,1.265039 0.89297,2.158007 l 2.30683,2.306836 -2.30683,2.306835 q -0.89297,0.892969 -0.89297,2.158009 h 1.26504 l 3.1998,-3.199804 3.19981,3.199804 h 1.26504 q 0,-1.26504 -0.89297,-2.158008 l -2.30684,-2.306835 z"
             clip-path="url(#clipPath82525)"
             transform="translate(-10.32948,4.818772)"
             id="path48"
             style="fill:#f29801;stroke:none;stroke-width:0.3;stroke-miterlimit:4;stroke-dasharray:none;stroke-opacity:1;paint-order:normal" />
        </g>
        <!-- wing left -->
        <g
           transform="matrix(-1,0,0,1,297.50311,0)"
           id="g62"
           style="fill:#f29801;stroke:none;stroke-width:0.3;stroke-miterlimit:4;stroke-dasharray:none;stroke-opacity:1;paint-order:normal">
          <!-- wing outer left -->
          <path
             d="m 153.21484,26.015625 -5.73249,5.740901 1.26289,1.262892 4.98488,-4.988411 z"
             id="path27"
             style="fill:#f29801;stroke:none;stroke-width:0.3;stroke-miterlimit:4;stroke-dasharray:none;stroke-opacity:1;paint-order:normal" />
          <!-- wing inner left -->
          <path
             d="m 153.08148,21.676186 -7.17713,7.18785 1.26289,1.262892 7.31713,-7.316381 z"
             id="path29"
             style="fill:#f29801;stroke:none;stroke-width:0.3;stroke-miterlimit:4;stroke-dasharray:none;stroke-opacity:1;paint-order:normal" />
          <!-- wing tip left -->
          <g
             transform="matrix(0.86071888,0,0,0.75498491,21.428479,6.033842)"
             id="g58"
             style="fill:#f29801;stroke:none;stroke-width:0.372153;stroke-miterlimit:4;stroke-dasharray:none;stroke-opacity:1;paint-order:normal">
            <path
               d="m 152.95703,20.71875 -0.004,5.929687 1.78907,0.002 0.006,-5.929688 z"
               id="path56"
               style="fill:#f29801;stroke:none;stroke-width:0.372153;stroke-miterlimit:4;stroke-dasharray:none;stroke-opacity:1;paint-order:normal" />
          </g>
          <!-- wing corner left -->
          <path
             d="m 164.0596,23.212235 q 0.89297,-0.892968 0.89297,-2.158007 h -1.26504 l -3.19981,3.199803 -3.1998,-3.199803 h -1.26504 q 0,1.265039 0.89297,2.158007 l 2.30683,2.306836 -2.30683,2.306835 q -0.89297,0.892969 -0.89297,2.158009 h 1.26504 l 3.1998,-3.199804 3.19981,3.199804 h 1.26504 q 0,-1.26504 -0.89297,-2.158008 l -2.30684,-2.306835 z"
             clip-path="url(#clipPath82525)"
             transform="translate(-10.32948,4.818772)"
             id="path60"
             style="fill:#f29801;stroke:none;stroke-width:0.3;stroke-miterlimit:4;stroke-dasharray:none;stroke-opacity:1;paint-order:normal" />
        </g>
      </g>
      <g
         id="g74"
         transform="translate(-63.500337)"
         style="fill:#f29801;stroke:none;stroke-width:0.3;stroke-miterlimit:4;stroke-dasharray:none;stroke-opacity:1;paint-order:normal">
        <!-- tail top -->
        <path
           d="m 151.42362,33.34415 -1.26285,-1.26285 -1.26289,1.262892 1.26337,1.26285 z"
           id="path39"
           sodipodi:nodetypes="ccccc"
           style="fill:#f29801;stroke:none;stroke-width:0.3;stroke-miterlimit:4;stroke-dasharray:none;stroke-opacity:1;paint-order:normal" />
        <!-- tail left -->
        <path
           d="m 149.83662,34.931651 -1.26285,-1.26285 -1.26289,1.262892 1.26285,1.26285 z"
           id="path41"
           style="display:inline;fill:#f29801;stroke:none;stroke-width:0.3;stroke-miterlimit:4;stroke-dasharray:none;stroke-opacity:1;paint-order:normal"
           sodipodi:nodetypes="ccccc" />
        <!-- tail right -->
        <path
           d="m 153.01162,34.931651 -1.26285,-1.26285 -1.26289,1.262892 1.26285,1.26285 z"
           id="path43"
           sodipodi:nodetypes="ccccc"
           style="fill:#f29801;stroke:none;stroke-width:0.3;stroke-miterlimit:4;stroke-dasharray:none;stroke-opacity:1;paint-order:normal" />
        <!-- tail bottom -->
        <path
           d="m 151.42412,36.518774 -1.26285,-1.26285 -1.26289,1.262892 1.26285,1.26285 z"
           id="path45"
           sodipodi:nodetypes="ccccc"
           style="fill:#f29801;stroke:none;stroke-width:0.3;stroke-miterlimit:4;stroke-dasharray:none;stroke-opacity:1;paint-order:normal" />
      </g>
    </g>
  </g>
  <g
     id="studio"
     fill="var(--studio)"
     transform="translate(-26.202913,-20.558174)"
     style="fill:#f3f1ec;stroke:#20201f;stroke-width:0.3;stroke-miterlimit:4;stroke-dasharray:none;stroke-opacity:1"
     inkscape:label="studio">
    <!--s-->
    <path
       d="m 27.245881,27.728828 q -0.892968,-0.511596 -0.892968,-1.544092 0,-0.744141 0.520898,-1.265039 0.520898,-0.520898 1.265039,-0.520898 h 8.036719 v 1.785937 H 28.13885 l 7.14375,3.813722 q 0.892969,0.511596 0.892969,1.54409 0,0.74414 -0.520899,1.265039 -0.520898,0.520898 -1.265039,0.520898 h -8.036718 v -1.785937 h 8.036718 z"
       id="path7"
       style="fill:#f3f1ec;stroke:#20201f;stroke-width:0.3;stroke-miterlimit:4;stroke-dasharray:none;stroke-opacity:1" />
    <!--t-->
    <path
       d="M 41.533381,24.398799 H 40.193928 V 20.826924 H 38.40799 v 3.571875 h -1.339453 v 1.785937 h 1.339453 v 7.143749 h 1.785938 v -7.143749 h 1.339453 z"
       id="path9"
       style="fill:#f3f1ec;stroke:#20201f;stroke-width:0.3;stroke-miterlimit:4;stroke-dasharray:none;stroke-opacity:1" />
    <!--u-->
    <path
       d="m 42.42635,24.398799 h 1.785937 v 7.143749 h 6.250781 v -7.143749 h 1.785938 v 7.143749 q 0,0.446484 -0.223242,0.892968 -0.446485,0.892969 -1.562696,0.892969 h -6.250781 q -0.446484,0 -0.892969,-0.223242 -0.892968,-0.446484 -0.892968,-1.562695 z"
       id="path11"
       style="fill:#f3f1ec;stroke:#20201f;stroke-width:0.3;stroke-miterlimit:4;stroke-dasharray:none;stroke-opacity:1" />
    <!--d-->
    <path
       d="m 61.680989,31.542548 h -6.250781 v -5.357812 h 6.250781 z m 0,-10.715624 v 3.571875 h -6.250781 q -0.465088,0 -0.930177,0.223242 -0.930175,0.446484 -0.902269,1.562695 0.0279,0.892968 0,2.678906 -0.0186,1.785937 0,2.678906 0.0279,1.116211 0.939477,1.562695 0.446484,0.223242 0.892969,0.223242 h 8.036718 V 20.826924 Z"
       id="path13"
       style="fill:#f3f1ec;stroke:#20201f;stroke-width:0.3;stroke-miterlimit:4;stroke-dasharray:none;stroke-opacity:1" />
    <!--i-->
    <path
       d="m 66.536506,24.398799 h -1.785938 v 8.929686 h 1.785938 z"
       id="path15"
       style="fill:#f3f1ec;stroke:#20201f;stroke-width:0.3;stroke-miterlimit:4;stroke-dasharray:none;stroke-opacity:1" />
    <!--o-->
    <path
       d="m 75.912677,31.542548 h -6.250781 v -5.357812 h 6.250781 z m 0,1.785937 q 1.116211,0 1.562696,-0.892969 0.223242,-0.446484 0.223242,-0.892968 v -5.357812 q 0,-1.116211 -0.892969,-1.562695 -0.446484,-0.223242 -0.892969,-0.223242 h -6.250781 q -0.446484,0 -0.892968,0.223242 -0.892969,0.446484 -0.892969,1.562695 v 5.357812 q 0,1.116211 0.892969,1.562695 0.446484,0.223242 0.892968,0.223242 z"
       id="path17"
       style="fill:#f3f1ec;stroke:#20201f;stroke-width:0.3;stroke-miterlimit:4;stroke-dasharray:none;stroke-opacity:1" />
  </g>
</svg>
